<svg width="1600" height="900" viewBox="0 0 1600 900" xmlns="http://www.w3.org/2000/svg" role="img" aria-labelledby="title desc">
  <title id="title">Locally AI - Dover blue hero artwork</title>
  <desc id="desc">A Dover blue themed app icon framed inside a wide hero image background.</desc>
  <defs>
    <linearGradient id="bg" x1="0" y1="0" x2="0" y2="1">
      <stop offset="0%" stop-color="#081327" />
      <stop offset="50%" stop-color="#0f2950" />
      <stop offset="100%" stop-color="#133b73" />
    </linearGradient>
    <radialGradient id="glow" cx="50%" cy="45%" r="55%">
      <stop offset="0%" stop-color="#2f7bd2" stop-opacity="0.55" />
      <stop offset="60%" stop-color="#1c4076" stop-opacity="0.08" />
      <stop offset="100%" stop-color="#0a1a36" stop-opacity="0" />
    </radialGradient>
    <linearGradient id="iconBase" x1="0" y1="0" x2="1" y2="1">
      <stop offset="0%" stop-color="#112a54" />
      <stop offset="100%" stop-color="#0b1a34" />
    </linearGradient>
    <linearGradient id="iconSheen" x1="0" y1="0" x2="0" y2="1">
      <stop offset="0%" stop-color="#ffffff" stop-opacity="0.18" />
      <stop offset="100%" stop-color="#ffffff" stop-opacity="0" />
    </linearGradient>
    <filter id="shadow" x="-30%" y="-30%" width="160%" height="160%" color-interpolation-filters="sRGB">
      <feDropShadow dx="0" dy="22" stdDeviation="28" flood-color="#040814" flood-opacity="0.75" />
    </filter>
    <filter id="softGlow" x="-50%" y="-50%" width="200%" height="200%" color-interpolation-filters="sRGB">
      <feGaussianBlur stdDeviation="18" result="blur" />
      <feColorMatrix in="blur" type="matrix" values="1 0 0 0 0  0 1 0 0 0  0 0 1 0 0  0 0 0 0.6 0" />
    </filter>
  </defs>

  <rect width="1600" height="900" fill="url(#bg)" />
  <rect width="1600" height="900" fill="url(#glow)" />

  <rect x="62" y="42" width="1476" height="816" rx="34" stroke="#3d73c1" stroke-opacity="0.6" fill="none" stroke-width="3" />

  <g filter="url(#softGlow)">
    <ellipse cx="800" cy="410" rx="380" ry="210" fill="#2f7bd2" fill-opacity="0.25" />
  </g>

  <g transform="translate(540 170)" filter="url(#shadow)">
    <rect x="0" y="0" width="520" height="520" rx="130" fill="url(#iconBase)" />
    <rect x="12" y="12" width="496" height="470" rx="118" fill="url(#iconSheen)" opacity="0.4" />

    <g transform="translate(260 260)">
      <path d="M0 -210 L58 -58 L210 0 L58 58 L0 210 L-58 58 L-210 0 L-58 -58 Z" fill="#e7f1ff" />
      <path d="M0 -210 L58 -58 L210 0 L58 58 L0 210 L-58 58 L-210 0 L-58 -58 Z" fill="#e7f1ff" opacity="0.35" filter="url(#softGlow)" />
    </g>
  </g>

  <text x="800" y="740" fill="#d5e8ff" font-family="'Inter', 'Segoe UI', system-ui, sans-serif" font-size="82" font-weight="700" text-anchor="middle" letter-spacing="1px">Locally AI</text>
  <text x="800" y="790" fill="#9fc3f5" font-family="'Inter', 'Segoe UI', system-ui, sans-serif" font-size="32" font-weight="500" text-anchor="middle" letter-spacing="0.6px">On-device intelligence for your iPhone</text>
</svg>
